<svg width="139" height="53" viewBox="0 0 139 53" fill="none" xmlns="http://www.w3.org/2000/svg">
<path d="M0.770061 50.2953V45.8769H2.51848C2.98556 45.8769 3.39584 45.9716 3.74931 46.1609C4.10278 46.3503 4.3763 46.6112 4.56987 46.9436C4.76764 47.2761 4.86653 47.6569 4.86653 48.0861C4.86653 48.5153 4.76764 48.8961 4.56987 49.2286C4.3763 49.561 4.10278 49.8219 3.74931 50.0112C3.39584 50.2006 2.98556 50.2953 2.51848 50.2953H0.770061ZM1.09197 50.0049H2.49323C2.90982 50.0049 3.27171 49.9229 3.57889 49.7588C3.88607 49.5947 4.12382 49.3695 4.29214 49.0834C4.46046 48.793 4.54462 48.4606 4.54462 48.0861C4.54462 47.7116 4.46046 47.3813 4.29214 47.0951C4.12382 46.8048 3.88607 46.5775 3.57889 46.4134C3.27171 46.2493 2.90982 46.1673 2.49323 46.1673H1.09197V50.0049ZM7.22198 50.3205C6.88955 50.3205 6.59499 50.249 6.33831 50.1059C6.08583 49.9629 5.88595 49.7651 5.73867 49.5126C5.5956 49.2601 5.52406 48.9719 5.52406 48.6479C5.52406 48.3196 5.59139 48.0314 5.72604 47.7831C5.86491 47.5306 6.05427 47.3329 6.29412 47.1898C6.53398 47.0467 6.80329 46.9752 7.10205 46.9752C7.40082 46.9752 7.66803 47.0446 7.90367 47.1835C8.14353 47.3223 8.33078 47.518 8.46544 47.7705C8.6043 48.0188 8.67374 48.307 8.67374 48.6352C8.67374 48.6479 8.67163 48.6626 8.66742 48.6794C8.66742 48.692 8.66742 48.7068 8.66742 48.7236H5.7576V48.4774H8.497L8.37076 48.5974C8.37497 48.3407 8.32026 48.1113 8.20665 47.9094C8.09724 47.7032 7.94786 47.5433 7.7585 47.4297C7.56914 47.3118 7.35032 47.2529 7.10205 47.2529C6.85799 47.2529 6.63918 47.3118 6.44561 47.4297C6.25625 47.5433 6.10687 47.7032 5.99746 47.9094C5.88805 48.1113 5.83335 48.3428 5.83335 48.6037V48.6605C5.83335 48.9298 5.89226 49.1697 6.01008 49.3801C6.13211 49.5862 6.29833 49.7483 6.50873 49.8661C6.71913 49.9797 6.95898 50.0365 7.22829 50.0365C7.43869 50.0365 7.63436 49.9986 7.81531 49.9229C8.00046 49.8471 8.15615 49.7314 8.28239 49.5757L8.46544 49.784C8.32237 49.9608 8.14143 50.0954 7.92261 50.188C7.708 50.2764 7.47446 50.3205 7.22198 50.3205ZM10.4832 50.3205C10.2097 50.3205 9.95304 50.2806 9.71319 50.2006C9.47754 50.1207 9.29449 50.0197 9.16405 49.8976L9.30922 49.6452C9.43546 49.7546 9.60378 49.8492 9.81418 49.9292C10.0246 50.0049 10.2518 50.0428 10.4959 50.0428C10.8409 50.0428 11.0892 49.986 11.2407 49.8724C11.3922 49.7588 11.4679 49.6094 11.4679 49.4242C11.4679 49.2896 11.4279 49.1844 11.348 49.1086C11.2722 49.0287 11.1692 48.9677 11.0387 48.9256C10.9083 48.8835 10.7652 48.8498 10.6095 48.8246C10.4538 48.7951 10.2981 48.7636 10.1424 48.7299C9.98671 48.6963 9.84364 48.6479 9.71319 48.5847C9.58274 48.5216 9.47754 48.4354 9.39759 48.326C9.32185 48.2123 9.28397 48.063 9.28397 47.8778C9.28397 47.7095 9.33026 47.558 9.42284 47.4233C9.51541 47.2887 9.65428 47.1814 9.83943 47.1014C10.0246 47.0173 10.256 46.9752 10.5337 46.9752C10.7399 46.9752 10.9461 47.0046 11.1523 47.0636C11.3627 47.1225 11.5331 47.2003 11.6636 47.2971L11.5184 47.5496C11.3795 47.4444 11.2239 47.3686 11.0513 47.3223C10.8788 47.2761 10.7042 47.2529 10.5274 47.2529C10.2076 47.2529 9.97198 47.3118 9.82049 47.4297C9.67321 47.5475 9.59957 47.6948 9.59957 47.8715C9.59957 48.0104 9.63745 48.1219 9.71319 48.206C9.79314 48.286 9.89834 48.3491 10.0288 48.3954C10.1592 48.4375 10.3023 48.4732 10.458 48.5027C10.6137 48.5279 10.7694 48.5574 10.9251 48.5911C11.0808 48.6247 11.2239 48.6731 11.3543 48.7362C11.4847 48.7951 11.5878 48.8793 11.6636 48.9887C11.7435 49.0939 11.7835 49.237 11.7835 49.4179C11.7835 49.5989 11.733 49.7567 11.632 49.8913C11.5352 50.026 11.3901 50.1312 11.1965 50.2069C11.0029 50.2827 10.7652 50.3205 10.4832 50.3205ZM12.6643 50.2953V47.0004H12.9799V50.2953H12.6643ZM12.8221 46.1988C12.7505 46.1988 12.6895 46.1736 12.639 46.1231C12.5885 46.0726 12.5633 46.0137 12.5633 45.9463C12.5633 45.8748 12.5885 45.8138 12.639 45.7633C12.6895 45.7128 12.7505 45.6875 12.8221 45.6875C12.8978 45.6875 12.9588 45.7128 13.0051 45.7633C13.0556 45.8096 13.0809 45.8685 13.0809 45.94C13.0809 46.0116 13.0556 46.0726 13.0051 46.1231C12.9588 46.1736 12.8978 46.1988 12.8221 46.1988ZM15.6798 51.5451C15.381 51.5451 15.097 51.4988 14.8277 51.4062C14.5584 51.3136 14.3395 51.1853 14.1712 51.0212L14.3416 50.7813C14.5058 50.9328 14.7014 51.0506 14.9287 51.1348C15.1601 51.2189 15.4084 51.261 15.6735 51.261C16.1153 51.261 16.4393 51.1579 16.6455 50.9517C16.8559 50.7455 16.9611 50.4215 16.9611 49.9797V49.0645L17.0242 48.5721L16.9737 48.0798V47.0004H17.2767V49.9418C17.2767 50.4931 17.1421 50.897 16.8727 51.1537C16.6076 51.4146 16.21 51.5451 15.6798 51.5451ZM15.5914 50.1754C15.28 50.1754 15.0002 50.108 14.7519 49.9734C14.5079 49.8345 14.3122 49.6452 14.1649 49.4053C14.0218 49.1612 13.9503 48.8835 13.9503 48.5721C13.9503 48.2565 14.0218 47.9788 14.1649 47.7389C14.3122 47.4991 14.5079 47.3118 14.7519 47.1772C15.0002 47.0425 15.28 46.9752 15.5914 46.9752C15.8902 46.9752 16.1574 47.0404 16.393 47.1709C16.6329 47.2971 16.8222 47.4801 16.9611 47.72C17.1 47.9557 17.1694 48.2397 17.1694 48.5721C17.1694 48.9003 17.1 49.1844 16.9611 49.4242C16.8222 49.6641 16.6329 49.8492 16.393 49.9797C16.1574 50.1101 15.8902 50.1754 15.5914 50.1754ZM15.6167 49.8913C15.8818 49.8913 16.1153 49.8366 16.3173 49.7272C16.5193 49.6136 16.6771 49.4579 16.7907 49.2601C16.9085 49.0581 16.9674 48.8288 16.9674 48.5721C16.9674 48.3112 16.9085 48.0819 16.7907 47.8841C16.6771 47.6863 16.5193 47.5327 16.3173 47.4233C16.1153 47.3139 15.8818 47.2592 15.6167 47.2592C15.36 47.2592 15.1285 47.3139 14.9223 47.4233C14.7204 47.5327 14.5605 47.6863 14.4426 47.8841C14.329 48.0819 14.2722 48.3112 14.2722 48.5721C14.2722 48.8288 14.329 49.0581 14.4426 49.2601C14.5605 49.4579 14.7204 49.6136 14.9223 49.7272C15.1285 49.8366 15.36 49.8913 15.6167 49.8913ZM20.2221 46.9752C20.4914 46.9752 20.725 47.0278 20.9228 47.133C21.1247 47.234 21.2804 47.3897 21.3898 47.6001C21.5035 47.8063 21.5603 48.063 21.5603 48.3701V50.2953H21.2447V48.3954C21.2447 48.0251 21.15 47.7431 20.9606 47.5496C20.7755 47.356 20.5146 47.2592 20.1779 47.2592C19.9213 47.2592 19.6982 47.3118 19.5089 47.417C19.3195 47.5222 19.1743 47.6695 19.0734 47.8589C18.9766 48.0482 18.9282 48.2755 18.9282 48.5406V50.2953H18.6126V47.0004H18.9156V47.9157L18.8714 47.8147C18.9724 47.5538 19.1386 47.3497 19.37 47.2024C19.6015 47.0509 19.8855 46.9752 20.2221 46.9752ZM22.8596 50.2953V47.0004H23.1752V50.2953H22.8596ZM23.0174 46.1988C22.9459 46.1988 22.8848 46.1736 22.8344 46.1231C22.7839 46.0726 22.7586 46.0137 22.7586 45.9463C22.7586 45.8748 22.7839 45.8138 22.8344 45.7633C22.8848 45.7128 22.9459 45.6875 23.0174 45.6875C23.0931 45.6875 23.1542 45.7128 23.2004 45.7633C23.2509 45.8096 23.2762 45.8685 23.2762 45.94C23.2762 46.0116 23.2509 46.0726 23.2004 46.1231C23.1542 46.1736 23.0931 46.1988 23.0174 46.1988ZM26.1149 46.9752C26.3843 46.9752 26.6178 47.0278 26.8156 47.133C27.0176 47.234 27.1733 47.3897 27.2827 47.6001C27.3963 47.8063 27.4531 48.063 27.4531 48.3701V50.2953H27.1375V48.3954C27.1375 48.0251 27.0428 47.7431 26.8534 47.5496C26.6683 47.356 26.4074 47.2592 26.0708 47.2592C25.8141 47.2592 25.5911 47.3118 25.4017 47.417C25.2123 47.5222 25.0672 47.6695 24.9662 47.8589C24.8694 48.0482 24.821 48.2755 24.821 48.5406V50.2953H24.5054V47.0004H24.8084V47.9157L24.7642 47.8147C24.8652 47.5538 25.0314 47.3497 25.2628 47.2024C25.4943 47.0509 25.7783 46.9752 26.1149 46.9752ZM30.1221 51.5451C29.8233 51.5451 29.5393 51.4988 29.27 51.4062C29.0007 51.3136 28.7819 51.1853 28.6136 51.0212L28.784 50.7813C28.9481 50.9328 29.1438 51.0506 29.371 51.1348C29.6024 51.2189 29.8507 51.261 30.1158 51.261C30.5576 51.261 30.8817 51.1579 31.0878 50.9517C31.2982 50.7455 31.4034 50.4215 31.4034 49.9797V49.0645L31.4666 48.5721L31.4161 48.0798V47.0004H31.719V49.9418C31.719 50.4931 31.5844 50.897 31.3151 51.1537C31.05 51.4146 30.6523 51.5451 30.1221 51.5451ZM30.0337 50.1754C29.7224 50.1754 29.4425 50.108 29.1943 49.9734C28.9502 49.8345 28.7545 49.6452 28.6072 49.4053C28.4642 49.1612 28.3926 48.8835 28.3926 48.5721C28.3926 48.2565 28.4642 47.9788 28.6072 47.7389C28.7545 47.4991 28.9502 47.3118 29.1943 47.1772C29.4425 47.0425 29.7224 46.9752 30.0337 46.9752C30.3325 46.9752 30.5997 47.0404 30.8354 47.1709C31.0752 47.2971 31.2646 47.4801 31.4034 47.72C31.5423 47.9557 31.6117 48.2397 31.6117 48.5721C31.6117 48.9003 31.5423 49.1844 31.4034 49.4242C31.2646 49.6641 31.0752 49.8492 30.8354 49.9797C30.5997 50.1101 30.3325 50.1754 30.0337 50.1754ZM30.059 49.8913C30.3241 49.8913 30.5576 49.8366 30.7596 49.7272C30.9616 49.6136 31.1194 49.4579 31.233 49.2601C31.3508 49.0581 31.4098 48.8288 31.4098 48.5721C31.4098 48.3112 31.3508 48.0819 31.233 47.8841C31.1194 47.6863 30.9616 47.5327 30.7596 47.4233C30.5576 47.3139 30.3241 47.2592 30.059 47.2592C29.8023 47.2592 29.5709 47.3139 29.3647 47.4233C29.1627 47.5327 29.0028 47.6863 28.885 47.8841C28.7714 48.0819 28.7145 48.3112 28.7145 48.5721C28.7145 48.8288 28.7714 49.0581 28.885 49.2601C29.0028 49.4579 29.1627 49.6136 29.3647 49.7272C29.5709 49.8366 29.8023 49.8913 30.059 49.8913ZM35.9384 50.3268C35.6102 50.3268 35.2988 50.2721 35.0043 50.1627C34.7139 50.0491 34.4888 49.9039 34.3289 49.7272L34.4741 49.4874C34.6256 49.6431 34.8317 49.7756 35.0926 49.885C35.3577 49.9902 35.6376 50.0428 35.9321 50.0428C36.2267 50.0428 36.4666 50.0049 36.6517 49.9292C36.8411 49.8492 36.9799 49.744 37.0683 49.6136C37.1609 49.4831 37.2072 49.338 37.2072 49.1781C37.2072 48.9887 37.1567 48.8372 37.0557 48.7236C36.9547 48.61 36.8221 48.5195 36.658 48.4522C36.4939 48.3849 36.3151 48.3281 36.1215 48.2818C35.9279 48.2355 35.7323 48.1871 35.5345 48.1366C35.3367 48.0819 35.1558 48.0125 34.9917 47.9283C34.8275 47.8441 34.695 47.7305 34.594 47.5875C34.4972 47.4402 34.4488 47.2508 34.4488 47.0194C34.4488 46.809 34.5035 46.6154 34.6129 46.4387C34.7223 46.2619 34.8928 46.1189 35.1242 46.0095C35.3556 45.9001 35.6523 45.8453 36.0142 45.8453C36.2583 45.8453 36.4981 45.8811 36.7338 45.9527C36.9736 46.0242 37.1777 46.121 37.346 46.243L37.2261 46.5018C37.0409 46.3756 36.8411 46.283 36.6265 46.2241C36.4161 46.1609 36.212 46.1294 36.0142 46.1294C35.7323 46.1294 35.4987 46.1694 35.3136 46.2493C35.1284 46.3293 34.9917 46.4366 34.9033 46.5712C34.8149 46.7017 34.7707 46.849 34.7707 47.0131C34.7707 47.2024 34.8191 47.3539 34.9159 47.4675C35.0169 47.5811 35.1495 47.6716 35.3136 47.7389C35.4777 47.8063 35.6586 47.8631 35.8564 47.9094C36.0542 47.9557 36.2498 48.0061 36.4434 48.0608C36.637 48.1113 36.8158 48.1787 36.9799 48.2628C37.144 48.347 37.2766 48.4606 37.3776 48.6037C37.4786 48.7468 37.5291 48.9319 37.5291 49.1591C37.5291 49.3653 37.4723 49.5589 37.3586 49.7398C37.245 49.9166 37.0704 50.0596 36.8347 50.169C36.6033 50.2742 36.3045 50.3268 35.9384 50.3268ZM39.8101 50.3205C39.4945 50.3205 39.2125 50.249 38.9643 50.1059C38.7202 49.9629 38.5245 49.7651 38.3772 49.5126C38.2342 49.2601 38.1626 48.9719 38.1626 48.6479C38.1626 48.3196 38.2342 48.0314 38.3772 47.7831C38.5245 47.5306 38.7202 47.3329 38.9643 47.1898C39.2125 47.0467 39.4945 46.9752 39.8101 46.9752C40.1257 46.9752 40.4076 47.0467 40.6559 47.1898C40.9041 47.3329 41.0998 47.5306 41.2429 47.7831C41.3859 48.0314 41.4575 48.3196 41.4575 48.6479C41.4575 48.9719 41.3859 49.2601 41.2429 49.5126C41.0998 49.7651 40.9041 49.9629 40.6559 50.1059C40.4076 50.249 40.1257 50.3205 39.8101 50.3205ZM39.8101 50.0365C40.0625 50.0365 40.2898 49.9797 40.4917 49.8661C40.6937 49.7483 40.8515 49.5841 40.9651 49.3737C41.0788 49.1633 41.1356 48.9214 41.1356 48.6479C41.1356 48.3701 41.0788 48.1282 40.9651 47.922C40.8515 47.7116 40.6937 47.5496 40.4917 47.436C40.2898 47.3181 40.0625 47.2592 39.8101 47.2592C39.5576 47.2592 39.3303 47.3181 39.1284 47.436C38.9306 47.5496 38.7728 47.7116 38.655 47.922C38.5413 48.1282 38.4845 48.3701 38.4845 48.6479C38.4845 48.9214 38.5413 49.1633 38.655 49.3737C38.7728 49.5841 38.9306 49.7483 39.1284 49.8661C39.3303 49.9797 39.5576 50.0365 39.8101 50.0365ZM42.4366 50.2953V45.6118H42.7522V50.2953H42.4366ZM45.4205 50.3205C45.1386 50.3205 44.8945 50.27 44.6883 50.169C44.4821 50.0638 44.3222 49.9082 44.2086 49.702C44.0992 49.4916 44.0445 49.2328 44.0445 48.9256V47.0004H44.3601V48.9003C44.3601 49.2706 44.4548 49.5526 44.6441 49.7461C44.8335 49.9397 45.1007 50.0365 45.4458 50.0365C45.694 50.0365 45.9086 49.9839 46.0896 49.8787C46.2705 49.7735 46.4094 49.6262 46.5062 49.4369C46.603 49.2433 46.6513 49.0161 46.6513 48.7552V47.0004H46.9669V50.2953H46.664V49.3801L46.7082 49.4874C46.6114 49.744 46.4494 49.9481 46.2221 50.0996C45.9991 50.2469 45.7319 50.3205 45.4205 50.3205ZM49.2642 50.3205C48.9738 50.3205 48.7508 50.2406 48.5951 50.0807C48.4436 49.9208 48.3679 49.702 48.3679 49.4242V46.2809H48.6835V49.3927C48.6835 49.6031 48.7361 49.7651 48.8413 49.8787C48.9465 49.9923 49.0979 50.0491 49.2957 50.0491C49.5019 50.0491 49.6723 49.9881 49.807 49.8661L49.9395 50.087C49.8554 50.1669 49.7523 50.2259 49.6303 50.2637C49.5124 50.3016 49.3904 50.3205 49.2642 50.3205ZM47.7619 47.2719V47.0004H49.7312V47.2719H47.7619ZM50.8197 50.2953V47.0004H51.1353V50.2953H50.8197ZM50.9775 46.1988C50.9059 46.1988 50.8449 46.1736 50.7944 46.1231C50.7439 46.0726 50.7187 46.0137 50.7187 45.9463C50.7187 45.8748 50.7439 45.8138 50.7944 45.7633C50.8449 45.7128 50.9059 45.6875 50.9775 45.6875C51.0532 45.6875 51.1142 45.7128 51.1605 45.7633C51.211 45.8096 51.2363 45.8685 51.2363 45.94C51.2363 46.0116 51.211 46.0726 51.1605 46.1231C51.1142 46.1736 51.0532 46.1988 50.9775 46.1988ZM53.7531 50.3205C53.4375 50.3205 53.1556 50.249 52.9073 50.1059C52.6632 49.9629 52.4676 49.7651 52.3203 49.5126C52.1772 49.2601 52.1057 48.9719 52.1057 48.6479C52.1057 48.3196 52.1772 48.0314 52.3203 47.7831C52.4676 47.5306 52.6632 47.3329 52.9073 47.1898C53.1556 47.0467 53.4375 46.9752 53.7531 46.9752C54.0687 46.9752 54.3506 47.0467 54.5989 47.1898C54.8472 47.3329 55.0428 47.5306 55.1859 47.7831C55.329 48.0314 55.4005 48.3196 55.4005 48.6479C55.4005 48.9719 55.329 49.2601 55.1859 49.5126C55.0428 49.7651 54.8472 49.9629 54.5989 50.1059C54.3506 50.249 54.0687 50.3205 53.7531 50.3205ZM53.7531 50.0365C54.0056 50.0365 54.2328 49.9797 54.4348 49.8661C54.6368 49.7483 54.7946 49.5841 54.9082 49.3737C55.0218 49.1633 55.0786 48.9214 55.0786 48.6479C55.0786 48.3701 55.0218 48.1282 54.9082 47.922C54.7946 47.7116 54.6368 47.5496 54.4348 47.436C54.2328 47.3181 54.0056 47.2592 53.7531 47.2592C53.5006 47.2592 53.2734 47.3181 53.0714 47.436C52.8736 47.5496 52.7158 47.7116 52.598 47.922C52.4844 48.1282 52.4276 48.3701 52.4276 48.6479C52.4276 48.9214 52.4844 49.1633 52.598 49.3737C52.7158 49.5841 52.8736 49.7483 53.0714 49.8661C53.2734 49.9797 53.5006 50.0365 53.7531 50.0365ZM57.9892 46.9752C58.2585 46.9752 58.492 47.0278 58.6898 47.133C58.8918 47.234 59.0475 47.3897 59.1569 47.6001C59.2705 47.8063 59.3273 48.063 59.3273 48.3701V50.2953H59.0117V48.3954C59.0117 48.0251 58.917 47.7431 58.7277 47.5496C58.5425 47.356 58.2816 47.2592 57.945 47.2592C57.6883 47.2592 57.4653 47.3118 57.2759 47.417C57.0866 47.5222 56.9414 47.6695 56.8404 47.8589C56.7436 48.0482 56.6952 48.2755 56.6952 48.5406V50.2953H56.3796V47.0004H56.6826V47.9157L56.6384 47.8147C56.7394 47.5538 56.9056 47.3497 57.1371 47.2024C57.3685 47.0509 57.6525 46.9752 57.9892 46.9752ZM61.4598 50.3205C61.1863 50.3205 60.9296 50.2806 60.6898 50.2006C60.4541 50.1207 60.2711 50.0197 60.1406 49.8976L60.2858 49.6452C60.412 49.7546 60.5804 49.8492 60.7908 49.9292C61.0012 50.0049 61.2284 50.0428 61.4725 50.0428C61.8175 50.0428 62.0658 49.986 62.2173 49.8724C62.3688 49.7588 62.4445 49.6094 62.4445 49.4242C62.4445 49.2896 62.4045 49.1844 62.3246 49.1086C62.2488 49.0287 62.1457 48.9677 62.0153 48.9256C61.8848 48.8835 61.7418 48.8498 61.5861 48.8246C61.4304 48.7951 61.2747 48.7636 61.119 48.7299C60.9633 48.6963 60.8202 48.6479 60.6898 48.5847C60.5593 48.5216 60.4541 48.4354 60.3742 48.326C60.2984 48.2123 60.2606 48.063 60.2606 47.8778C60.2606 47.7095 60.3068 47.558 60.3994 47.4233C60.492 47.2887 60.6309 47.1814 60.816 47.1014C61.0012 47.0173 61.2326 46.9752 61.5103 46.9752C61.7165 46.9752 61.9227 47.0046 62.1289 47.0636C62.3393 47.1225 62.5097 47.2003 62.6402 47.2971L62.495 47.5496C62.3561 47.4444 62.2004 47.3686 62.0279 47.3223C61.8554 47.2761 61.6807 47.2529 61.504 47.2529C61.1842 47.2529 60.9486 47.3118 60.7971 47.4297C60.6498 47.5475 60.5762 47.6948 60.5762 47.8715C60.5762 48.0104 60.614 48.1219 60.6898 48.206C60.7697 48.286 60.8749 48.3491 61.0054 48.3954C61.1358 48.4375 61.2789 48.4732 61.4346 48.5027C61.5903 48.5279 61.746 48.5574 61.9017 48.5911C62.0574 48.6247 62.2004 48.6731 62.3309 48.7362C62.4613 48.7951 62.5644 48.8793 62.6402 48.9887C62.7201 49.0939 62.7601 49.237 62.7601 49.4179C62.7601 49.5989 62.7096 49.7567 62.6086 49.8913C62.5118 50.026 62.3666 50.1312 62.1731 50.2069C61.9795 50.2827 61.7418 50.3205 61.4598 50.3205ZM65.647 48.0545H68.0393V48.3449H65.647V48.0545ZM65.6849 50.2953H65.363V45.8769H68.317V46.1673H65.6849V50.2953ZM70.4145 50.3205C70.0989 50.3205 69.817 50.249 69.5687 50.1059C69.3246 49.9629 69.129 49.7651 68.9817 49.5126C68.8386 49.2601 68.7671 48.9719 68.7671 48.6479C68.7671 48.3196 68.8386 48.0314 68.9817 47.7831C69.129 47.5306 69.3246 47.3329 69.5687 47.1898C69.817 47.0467 70.0989 46.9752 70.4145 46.9752C70.7301 46.9752 71.012 47.0467 71.2603 47.1898C71.5086 47.3329 71.7042 47.5306 71.8473 47.7831C71.9904 48.0314 72.0619 48.3196 72.0619 48.6479C72.0619 48.9719 71.9904 49.2601 71.8473 49.5126C71.7042 49.7651 71.5086 49.9629 71.2603 50.1059C71.012 50.249 70.7301 50.3205 70.4145 50.3205ZM70.4145 50.0365C70.667 50.0365 70.8942 49.9797 71.0962 49.8661C71.2982 49.7483 71.456 49.5841 71.5696 49.3737C71.6832 49.1633 71.74 48.9214 71.74 48.6479C71.74 48.3701 71.6832 48.1282 71.5696 47.922C71.456 47.7116 71.2982 47.5496 71.0962 47.436C70.8942 47.3181 70.667 47.2592 70.4145 47.2592C70.162 47.2592 69.9348 47.3181 69.7328 47.436C69.535 47.5496 69.3772 47.7116 69.2594 47.922C69.1458 48.1282 69.089 48.3701 69.089 48.6479C69.089 48.9214 69.1458 49.1633 69.2594 49.3737C69.3772 49.5841 69.535 49.7483 69.7328 49.8661C69.9348 49.9797 70.162 50.0365 70.4145 50.0365ZM73.041 50.2953V47.0004H73.344V47.9031L73.3124 47.8021C73.405 47.537 73.5607 47.3329 73.7795 47.1898C73.9983 47.0467 74.2718 46.9752 74.6001 46.9752V47.2845C74.5874 47.2845 74.5748 47.2845 74.5622 47.2845C74.5496 47.2803 74.5369 47.2782 74.5243 47.2782C74.1582 47.2782 73.8721 47.3939 73.6659 47.6253C73.4597 47.8526 73.3566 48.1703 73.3566 48.5784V50.2953H73.041ZM76.5087 50.2953L78.5412 45.8769H78.8631L80.8956 50.2953H80.5484L78.6296 46.0789H78.7684L76.8559 50.2953H76.5087ZM77.2536 49.0518L77.3609 48.7804H80.0056L80.1129 49.0518H77.2536ZM85.1872 50.3268C84.8589 50.3268 84.5539 50.2721 84.2719 50.1627C83.9942 50.0491 83.7522 49.8913 83.5461 49.6893C83.3399 49.4874 83.18 49.2517 83.0663 48.9824C82.9527 48.7089 82.8959 48.4101 82.8959 48.0861C82.8959 47.7621 82.9527 47.4654 83.0663 47.1961C83.18 46.9226 83.3399 46.6848 83.5461 46.4829C83.7565 46.2809 84.0005 46.1252 84.2782 46.0158C84.556 45.9022 84.8589 45.8453 85.1872 45.8453C85.4986 45.8453 85.7889 45.8958 86.0582 45.9968C86.3317 46.0978 86.5653 46.2514 86.7589 46.4576L86.5569 46.6659C86.3675 46.4808 86.1571 46.3482 85.9257 46.2682C85.6984 46.1841 85.4565 46.142 85.1998 46.142C84.9179 46.142 84.6549 46.1904 84.4108 46.2872C84.1709 46.384 83.9605 46.5207 83.7796 46.6975C83.6029 46.8742 83.464 47.0804 83.363 47.316C83.2662 47.5517 83.2178 47.8084 83.2178 48.0861C83.2178 48.3638 83.2662 48.6205 83.363 48.8562C83.464 49.0918 83.6029 49.298 83.7796 49.4747C83.9605 49.6515 84.1709 49.7882 84.4108 49.885C84.6549 49.9818 84.9179 50.0302 85.1998 50.0302C85.4565 50.0302 85.6984 49.9902 85.9257 49.9103C86.1571 49.8261 86.3675 49.6893 86.5569 49.5L86.7589 49.7083C86.5653 49.9145 86.3317 50.0702 86.0582 50.1754C85.7889 50.2764 85.4986 50.3268 85.1872 50.3268ZM88.8696 50.3205C88.554 50.3205 88.2721 50.249 88.0238 50.1059C87.7797 49.9629 87.5841 49.7651 87.4368 49.5126C87.2937 49.2601 87.2222 48.9719 87.2222 48.6479C87.2222 48.3196 87.2937 48.0314 87.4368 47.7831C87.5841 47.5306 87.7797 47.3329 88.0238 47.1898C88.2721 47.0467 88.554 46.9752 88.8696 46.9752C89.1852 46.9752 89.4671 47.0467 89.7154 47.1898C89.9637 47.3329 90.1594 47.5306 90.3024 47.7831C90.4455 48.0314 90.517 48.3196 90.517 48.6479C90.517 48.9719 90.4455 49.2601 90.3024 49.5126C90.1594 49.7651 89.9637 49.9629 89.7154 50.1059C89.4671 50.249 89.1852 50.3205 88.8696 50.3205ZM88.8696 50.0365C89.1221 50.0365 89.3493 49.9797 89.5513 49.8661C89.7533 49.7483 89.9111 49.5841 90.0247 49.3737C90.1383 49.1633 90.1951 48.9214 90.1951 48.6479C90.1951 48.3701 90.1383 48.1282 90.0247 47.922C89.9111 47.7116 89.7533 47.5496 89.5513 47.436C89.3493 47.3181 89.1221 47.2592 88.8696 47.2592C88.6171 47.2592 88.3899 47.3181 88.1879 47.436C87.9901 47.5496 87.8323 47.7116 87.7145 47.922C87.6009 48.1282 87.5441 48.3701 87.5441 48.6479C87.5441 48.9214 87.6009 49.1633 87.7145 49.3737C87.8323 49.5841 87.9901 49.7483 88.1879 49.8661C88.3899 49.9797 88.6171 50.0365 88.8696 50.0365ZM93.1057 46.9752C93.375 46.9752 93.6085 47.0278 93.8063 47.133C94.0083 47.234 94.164 47.3897 94.2734 47.6001C94.387 47.8063 94.4438 48.063 94.4438 48.3701V50.2953H94.1282V48.3954C94.1282 48.0251 94.0335 47.7431 93.8442 47.5496C93.659 47.356 93.3981 47.2592 93.0615 47.2592C92.8048 47.2592 92.5818 47.3118 92.3924 47.417C92.2031 47.5222 92.0579 47.6695 91.9569 47.8589C91.8601 48.0482 91.8117 48.2755 91.8117 48.5406V50.2953H91.4961V47.0004H91.7991V47.9157L91.7549 47.8147C91.8559 47.5538 92.0221 47.3497 92.2536 47.2024C92.485 47.0509 92.769 46.9752 93.1057 46.9752ZM97.3527 46.9752C97.622 46.9752 97.8556 47.0278 98.0533 47.133C98.2553 47.234 98.411 47.3897 98.5204 47.6001C98.634 47.8063 98.6908 48.063 98.6908 48.3701V50.2953H98.3753V48.3954C98.3753 48.0251 98.2806 47.7431 98.0912 47.5496C97.9061 47.356 97.6452 47.2592 97.3085 47.2592C97.0518 47.2592 96.8288 47.3118 96.6395 47.417C96.4501 47.5222 96.3049 47.6695 96.2039 47.8589C96.1071 48.0482 96.0588 48.2755 96.0588 48.5406V50.2953H95.7432V47.0004H96.0461V47.9157L96.0019 47.8147C96.1029 47.5538 96.2692 47.3497 96.5006 47.2024C96.732 47.0509 97.0161 46.9752 97.3527 46.9752ZM101.328 50.3205C100.996 50.3205 100.701 50.249 100.445 50.1059C100.192 49.9629 99.9923 49.7651 99.845 49.5126C99.7019 49.2601 99.6304 48.9719 99.6304 48.6479C99.6304 48.3196 99.6977 48.0314 99.8324 47.7831C99.9712 47.5306 100.161 47.3329 100.4 47.1898C100.64 47.0467 100.91 46.9752 101.208 46.9752C101.507 46.9752 101.774 47.0446 102.01 47.1835C102.25 47.3223 102.437 47.518 102.572 47.7705C102.711 48.0188 102.78 48.307 102.78 48.6352C102.78 48.6479 102.778 48.6626 102.774 48.6794C102.774 48.692 102.774 48.7068 102.774 48.7236H99.8639V48.4774H102.603L102.477 48.5974C102.481 48.3407 102.427 48.1113 102.313 47.9094C102.204 47.7032 102.054 47.5433 101.865 47.4297C101.675 47.3118 101.457 47.2529 101.208 47.2529C100.964 47.2529 100.746 47.3118 100.552 47.4297C100.363 47.5433 100.213 47.7032 100.104 47.9094C99.9944 48.1113 99.9397 48.3428 99.9397 48.6037V48.6605C99.9397 48.9298 99.9986 49.1697 100.116 49.3801C100.238 49.5862 100.405 49.7483 100.615 49.8661C100.825 49.9797 101.065 50.0365 101.335 50.0365C101.545 50.0365 101.741 49.9986 101.922 49.9229C102.107 49.8471 102.262 49.7314 102.389 49.5757L102.572 49.784C102.429 49.9608 102.248 50.0954 102.029 50.188C101.814 50.2764 101.581 50.3205 101.328 50.3205ZM105.063 50.3205C104.743 50.3205 104.457 50.249 104.205 50.1059C103.956 49.9629 103.759 49.7651 103.611 49.5126C103.468 49.2601 103.397 48.9719 103.397 48.6479C103.397 48.3196 103.468 48.0293 103.611 47.7768C103.759 47.5243 103.956 47.3287 104.205 47.1898C104.457 47.0467 104.743 46.9752 105.063 46.9752C105.328 46.9752 105.568 47.0257 105.783 47.1267C106.001 47.2277 106.178 47.3792 106.313 47.5811L106.079 47.7516C105.961 47.5832 105.814 47.4591 105.637 47.3792C105.461 47.2992 105.269 47.2592 105.063 47.2592C104.806 47.2592 104.575 47.3181 104.369 47.436C104.167 47.5496 104.007 47.7116 103.889 47.922C103.775 48.1282 103.719 48.3701 103.719 48.6479C103.719 48.9256 103.775 49.1697 103.889 49.3801C104.007 49.5862 104.167 49.7483 104.369 49.8661C104.575 49.9797 104.806 50.0365 105.063 50.0365C105.269 50.0365 105.461 49.9965 105.637 49.9166C105.814 49.8366 105.961 49.7125 106.079 49.5442L106.313 49.7146C106.178 49.9166 106.001 50.0681 105.783 50.169C105.568 50.27 105.328 50.3205 105.063 50.3205ZM108.254 50.3205C107.964 50.3205 107.741 50.2406 107.585 50.0807C107.433 49.9208 107.358 49.702 107.358 49.4242V46.2809H107.673V49.3927C107.673 49.6031 107.726 49.7651 107.831 49.8787C107.936 49.9923 108.088 50.0491 108.286 50.0491C108.492 50.0491 108.662 49.9881 108.797 49.8661L108.929 50.087C108.845 50.1669 108.742 50.2259 108.62 50.2637C108.502 50.3016 108.38 50.3205 108.254 50.3205ZM106.752 47.2719V47.0004H108.721V47.2719H106.752ZM111.031 50.3205C110.698 50.3205 110.404 50.249 110.147 50.1059C109.894 49.9629 109.694 49.7651 109.547 49.5126C109.404 49.2601 109.333 48.9719 109.333 48.6479C109.333 48.3196 109.4 48.0314 109.535 47.7831C109.673 47.5306 109.863 47.3329 110.103 47.1898C110.343 47.0467 110.612 46.9752 110.911 46.9752C111.209 46.9752 111.477 47.0446 111.712 47.1835C111.952 47.3223 112.139 47.518 112.274 47.7705C112.413 48.0188 112.482 48.307 112.482 48.6352C112.482 48.6479 112.48 48.6626 112.476 48.6794C112.476 48.692 112.476 48.7068 112.476 48.7236H109.566V48.4774H112.306L112.179 48.5974C112.183 48.3407 112.129 48.1113 112.015 47.9094C111.906 47.7032 111.756 47.5433 111.567 47.4297C111.378 47.3118 111.159 47.2529 110.911 47.2529C110.667 47.2529 110.448 47.3118 110.254 47.4297C110.065 47.5433 109.915 47.7032 109.806 47.9094C109.697 48.1113 109.642 48.3428 109.642 48.6037V48.6605C109.642 48.9298 109.701 49.1697 109.819 49.3801C109.941 49.5862 110.107 49.7483 110.317 49.8661C110.528 49.9797 110.768 50.0365 111.037 50.0365C111.247 50.0365 111.443 49.9986 111.624 49.9229C111.809 49.8471 111.965 49.7314 112.091 49.5757L112.274 49.784C112.131 49.9608 111.95 50.0954 111.731 50.188C111.517 50.2764 111.283 50.3205 111.031 50.3205ZM114.727 50.3205C114.42 50.3205 114.142 50.2511 113.894 50.1122C113.65 49.9692 113.456 49.7714 113.313 49.5189C113.17 49.2664 113.099 48.9761 113.099 48.6479C113.099 48.3154 113.17 48.0251 113.313 47.7768C113.456 47.5243 113.65 47.3287 113.894 47.1898C114.142 47.0467 114.42 46.9752 114.727 46.9752C115.018 46.9752 115.279 47.0425 115.51 47.1772C115.746 47.3118 115.931 47.5033 116.065 47.7516C116.204 47.9998 116.274 48.2986 116.274 48.6479C116.274 48.9887 116.206 49.2854 116.072 49.5379C115.937 49.7903 115.752 49.9839 115.516 50.1186C115.285 50.2532 115.022 50.3205 114.727 50.3205ZM114.746 50.0365C114.999 50.0365 115.224 49.9797 115.422 49.8661C115.624 49.7483 115.781 49.5841 115.895 49.3737C116.013 49.1633 116.072 48.9214 116.072 48.6479C116.072 48.3701 116.013 48.1282 115.895 47.922C115.781 47.7116 115.624 47.5496 115.422 47.436C115.224 47.3181 114.999 47.2592 114.746 47.2592C114.494 47.2592 114.267 47.3181 114.065 47.436C113.867 47.5496 113.709 47.7116 113.591 47.922C113.478 48.1282 113.421 48.3701 113.421 48.6479C113.421 48.9214 113.478 49.1633 113.591 49.3737C113.709 49.5841 113.867 49.7483 114.065 49.8661C114.267 49.9797 114.494 50.0365 114.746 50.0365ZM116.078 50.2953V49.2159L116.135 48.6416L116.072 48.0672V45.6118H116.387V50.2953H116.078ZM120.425 50.2953L118.922 45.8769H119.263L120.69 50.0996H120.519L121.99 45.8769H122.299L123.757 50.0996H123.593L125.032 45.8769H125.348L123.852 50.2953H123.511L122.097 46.2114H122.179L120.766 50.2953H120.425ZM127.21 50.3205C126.894 50.3205 126.612 50.249 126.364 50.1059C126.12 49.9629 125.924 49.7651 125.777 49.5126C125.634 49.2601 125.562 48.9719 125.562 48.6479C125.562 48.3196 125.634 48.0314 125.777 47.7831C125.924 47.5306 126.12 47.3329 126.364 47.1898C126.612 47.0467 126.894 46.9752 127.21 46.9752C127.526 46.9752 127.807 47.0467 128.056 47.1898C128.304 47.3329 128.5 47.5306 128.643 47.7831C128.786 48.0314 128.857 48.3196 128.857 48.6479C128.857 48.9719 128.786 49.2601 128.643 49.5126C128.5 49.7651 128.304 49.9629 128.056 50.1059C127.807 50.249 127.526 50.3205 127.21 50.3205ZM127.21 50.0365C127.462 50.0365 127.69 49.9797 127.892 49.8661C128.094 49.7483 128.251 49.5841 128.365 49.3737C128.479 49.1633 128.535 48.9214 128.535 48.6479C128.535 48.3701 128.479 48.1282 128.365 47.922C128.251 47.7116 128.094 47.5496 127.892 47.436C127.69 47.3181 127.462 47.2592 127.21 47.2592C126.957 47.2592 126.73 47.3181 126.528 47.436C126.33 47.5496 126.173 47.7116 126.055 47.922C125.941 48.1282 125.884 48.3701 125.884 48.6479C125.884 48.9214 125.941 49.1633 126.055 49.3737C126.173 49.5841 126.33 49.7483 126.528 49.8661C126.73 49.9797 126.957 50.0365 127.21 50.0365ZM129.836 50.2953V47.0004H130.139V47.9031L130.108 47.8021C130.2 47.537 130.356 47.3329 130.575 47.1898C130.794 47.0467 131.067 46.9752 131.396 46.9752V47.2845C131.383 47.2845 131.37 47.2845 131.358 47.2845C131.345 47.2803 131.332 47.2782 131.32 47.2782C130.954 47.2782 130.668 47.3939 130.461 47.6253C130.255 47.8526 130.152 48.1703 130.152 48.5784V50.2953H129.836ZM132.265 50.2953V45.6118H132.581V50.2953H132.265ZM135.18 50.3205C134.872 50.3205 134.595 50.2511 134.346 50.1122C134.102 49.9692 133.909 49.7714 133.766 49.5189C133.623 49.2664 133.551 48.9761 133.551 48.6479C133.551 48.3154 133.623 48.0251 133.766 47.7768C133.909 47.5243 134.102 47.3287 134.346 47.1898C134.595 47.0467 134.872 46.9752 135.18 46.9752C135.47 46.9752 135.731 47.0425 135.962 47.1772C136.198 47.3118 136.383 47.5033 136.518 47.7516C136.657 47.9998 136.726 48.2986 136.726 48.6479C136.726 48.9887 136.659 49.2854 136.524 49.5379C136.389 49.7903 136.204 49.9839 135.969 50.1186C135.737 50.2532 135.474 50.3205 135.18 50.3205ZM135.199 50.0365C135.451 50.0365 135.676 49.9797 135.874 49.8661C136.076 49.7483 136.234 49.5841 136.347 49.3737C136.465 49.1633 136.524 48.9214 136.524 48.6479C136.524 48.3701 136.465 48.1282 136.347 47.922C136.234 47.7116 136.076 47.5496 135.874 47.436C135.676 47.3181 135.451 47.2592 135.199 47.2592C134.946 47.2592 134.719 47.3181 134.517 47.436C134.319 47.5496 134.161 47.7116 134.043 47.922C133.93 48.1282 133.873 48.3701 133.873 48.6479C133.873 48.9214 133.93 49.1633 134.043 49.3737C134.161 49.5841 134.319 49.7483 134.517 49.8661C134.719 49.9797 134.946 50.0365 135.199 50.0365ZM136.53 50.2953V49.2159L136.587 48.6416L136.524 48.0672V45.6118H136.84V50.2953H136.53Z" fill="white"/>
<path d="M137.711 15.9453V40.375H107.448C105.265 40.3669 100.987 39.9294 96.8664 37.1104C91.4464 33.3969 89.6623 27.9155 89.1505 25.7294L86.5624 15.3834L75.8757 36.3968C74.5211 39.0559 71.9087 40.7351 69.051 40.777C68.8944 40.7803 68.7394 40.777 68.5779 40.7738L68.5004 40.7706C65.9672 40.6608 63.6196 39.1657 62.3861 36.8698L50.8324 15.4351L50.8792 16.1067C51.0036 17.9538 50.742 19.7411 50.0913 21.4283C48.9676 24.3571 46.9914 26.0362 46.1486 26.7547C42.3576 29.9757 37.8353 30.4875 35.4781 30.5069H11.4019V40.5768L0.929932 40.6737V20.0333H36.3709C36.7342 20.0365 37.979 19.9784 38.9671 18.9903C39.5871 18.3768 39.8373 17.6664 39.9391 17.1788C40.0359 16.7138 40.1651 16.2488 40.333 15.7612L44.0352 4.81296C44.6794 2.90295 46.0776 1.43532 47.8616 0.783044C48.5914 0.518258 49.3486 0.376178 50.1301 0.392323C52.6682 0.411698 54.9834 1.87286 56.1814 4.20266L69.269 27.4619L82.1773 4.36411C82.744 3.34856 83.4624 2.51707 84.3052 1.88901C85.5501 0.967103 86.8982 0.498883 88.3109 0.490811H88.3352C91.419 0.490811 94.2622 2.74311 95.2454 5.96898L100.333 24.215C100.644 25.195 101.305 26.6239 102.664 27.8703C104.351 29.409 106.249 29.8659 107.251 30.0015H125.938V24.215H106.557L113.202 15.9453H137.711Z" fill="#47EA7A"/>
<path d="M138.464 2.98529L131.201 12.9567H111.028C110.903 12.9567 110.782 12.9535 110.661 12.9487C109.248 12.8744 107.08 13.0262 104.792 14.1709C102.5 15.3188 101.064 16.9592 100.228 18.2315L97.0505 6.58089C98.0887 5.73809 99.2286 5.02769 100.436 4.46421C100.593 4.38995 100.753 4.32052 100.909 4.25271C102.881 3.40991 105.052 2.98367 107.368 2.98367H138.467L138.464 2.98529Z" fill="#47EA7A"/>
<path d="M42.7741 2.57359L39.3174 12.8744L37.0199 12.1043C34.5755 11.2841 32.0132 10.8659 29.4347 10.8659H0.833008V0H32.2667C34.1492 0 36.0189 0.30515 37.8029 0.904147L42.7741 2.57359Z" fill="#47EA7A"/>
</svg>
