<?xml version="1.0" encoding="UTF-8"?>
<svg id="Layer_2" data-name="Layer 2" xmlns="http://www.w3.org/2000/svg" xmlns:xlink="http://www.w3.org/1999/xlink" viewBox="0 0 846.72 846.72">
  <defs>
    <style>
      .cls-1 {
        letter-spacing: .24em;
      }

      .cls-2 {
        letter-spacing: .23em;
      }

      .cls-3 {
        letter-spacing: .23em;
      }

      .cls-4 {
        letter-spacing: .2em;
      }

      .cls-5 {
        letter-spacing: .25em;
      }

      .cls-6 {
        letter-spacing: .26em;
      }

      .cls-7 {
        letter-spacing: .23em;
      }

      .cls-8, .cls-9 {
        fill: #47ea7a;
      }

      .cls-10 {
        letter-spacing: .25em;
      }

      .cls-9 {
        font-family: Montserrat-Light, Montserrat;
        font-size: 20px;
        font-weight: 300;
      }

      .cls-11 {
        fill: url(#linear-gradient);
      }
    </style>
    <linearGradient id="linear-gradient" x1="130" y1="130" x2="728.72" y2="728.72" gradientUnits="userSpaceOnUse">
      <stop offset="0" stop-color="#47ea7a"/>
      <stop offset="1" stop-color="#364538" stop-opacity="0"/>
    </linearGradient>
  </defs>
  <g id="Layer_1-2" data-name="Layer 1">
    <g id="Layer_2-2" data-name="Layer 2">
      <g>
        <g>
          <text class="cls-9" transform="translate(102.97 513.56)"><tspan class="cls-5" x="0" y="0">Designing Solutions </tspan><tspan class="cls-7" x="304.72" y="0">F</tspan><tspan class="cls-5" x="321.96" y="0">or A </tspan><tspan class="cls-2" x="391.62" y="0">C</tspan><tspan class="cls-10" x="410.46" y="0">onne</tspan><tspan class="cls-6" x="481.71" y="0">c</tspan><tspan class="cls-3" x="497.93" y="0">t</tspan><tspan class="cls-10" x="510.51" y="0">ed </tspan><tspan class="cls-4" x="556.09" y="0">W</tspan><tspan class="cls-5" x="581.95" y="0">o</tspan><tspan class="cls-1" x="599.35" y="0">r</tspan><tspan class="cls-5" x="612.05" y="0">ld</tspan></text>
          <g>
            <path class="cls-8" d="m734.05,370.12v111.84h-138.54c-9.99-.04-29.58-2.04-48.44-14.94-24.81-17-32.98-42.09-35.32-52.1l-11.85-47.37-48.92,96.2c-6.2,12.17-18.16,19.86-31.24,20.06-.72.02-1.43,0-2.16-.02l-.36-.02c-11.6-.5-22.34-7.35-27.99-17.86l-52.89-98.13.21,3.07c.57,8.45-.63,16.64-3.61,24.36-5.15,13.41-14.19,21.09-18.05,24.38-17.36,14.75-38.05,17.09-48.85,17.18h-110.21v46.1l-47.94.45v-94.48h162.25c1.66.02,7.36-.25,11.89-4.77,2.84-2.81,3.99-6.06,4.45-8.29.45-2.13,1.04-4.25,1.81-6.49l16.94-50.12c2.95-8.74,9.35-15.46,17.52-18.45,3.34-1.22,6.81-1.86,10.38-1.79,11.62.09,22.22,6.77,27.71,17.45l59.91,106.48,59.09-105.74c2.59-4.65,5.88-8.45,9.74-11.33,5.7-4.22,11.87-6.36,18.34-6.4h.11c14.12,0,27.13,10.31,31.64,25.08l23.29,83.53c1.43,4.49,4.45,11.03,10.67,16.73,7.72,7.04,16.41,9.13,21,9.76h85.55v-26.49h-88.73l30.42-37.86h112.2Z"/>
            <path class="cls-8" d="m737.5,310.8l-33.25,45.65h-92.36c-.57,0-1.13-.02-1.68-.04-6.47-.34-16.39.36-26.87,5.59-10.49,5.26-17.07,12.76-20.9,18.59l-14.55-53.34c4.75-3.86,9.97-7.11,15.5-9.69.71-.34,1.45-.66,2.16-.97,9.03-3.86,18.96-5.81,29.56-5.81h142.37Z"/>
            <path class="cls-8" d="m299.43,308.91l-15.82,47.16-10.52-3.53c-11.19-3.76-22.92-5.67-34.73-5.67H107.43v-49.74h143.91c8.62,0,17.18,1.4,25.34,4.14h0s22.76,7.64,22.76,7.64Z"/>
          </g>
        </g>
        <path class="cls-11" d="m423.36,846.72c-57.15,0-112.6-11.19-164.79-33.27-50.41-21.32-95.69-51.85-134.57-90.73-38.88-38.88-69.4-84.15-90.73-134.57C11.19,535.96,0,480.51,0,423.36s11.19-112.6,33.27-164.79c21.32-50.41,51.85-95.69,90.73-134.57,38.88-38.88,84.15-69.4,134.57-90.73C310.77,11.19,366.21,0,423.36,0s112.6,11.19,164.79,33.27c50.41,21.32,95.69,51.85,134.57,90.73,38.88,38.88,69.41,84.15,90.73,134.57,22.08,52.2,33.27,107.64,33.27,164.79s-11.19,112.6-33.27,164.79c-21.32,50.41-51.85,95.69-90.73,134.57-38.88,38.88-84.15,69.41-134.57,90.73-52.2,22.08-107.64,33.27-164.79,33.27Zm0-836.72C195.43,10,10,195.43,10,423.36s185.43,413.36,413.36,413.36,413.36-185.43,413.36-413.36S651.29,10,423.36,10Z"/>
      </g>
    </g>
  </g>
</svg>