<svg width="81" height="94" viewBox="0 0 81 94" fill="none" xmlns="http://www.w3.org/2000/svg">
<path d="M56.0591 48.3023L36.4418 65.8214L23.3765 58.0084L29.5277 32.4365C31.2818 25.1446 36.5047 19.179 43.5006 16.4764L58.4346 10.7073C59.8198 10.1721 61.3393 11.0808 61.5233 12.5543L63.5074 28.4404C64.4369 35.8824 61.6527 43.3064 56.0591 48.3023Z" stroke="#47EA7A" stroke-width="5.70866" stroke-linecap="round" stroke-linejoin="round"/>
<path d="M17.5168 67.807C13.6104 74.3396 18.1897 81.5124 18.1897 81.5124C18.1897 81.5124 26.6756 82.1526 30.5821 75.62" stroke="#47EA7A" stroke-width="5.70866" stroke-linecap="round" stroke-linejoin="round"/>
<path d="M27.2667 40.38C10.9515 41.7094 9.67111 58.6811 9.67111 58.6811L23.3765 58.0083" stroke="#47EA7A" stroke-width="5.70866" stroke-linecap="round" stroke-linejoin="round"/>
<path d="M51.5391 54.8947C58.0881 69.8968 43.7425 79.0556 43.7425 79.0556L37.85 66.6632" stroke="#47EA7A" stroke-width="5.70866" stroke-linecap="round" stroke-linejoin="round"/>
<path d="M41.6286 42.3168C38.0206 40.1592 36.8449 35.4857 39.0024 31.8777C41.1599 28.2698 45.8336 27.094 49.4415 29.2516C53.0495 31.4091 54.2252 36.0828 52.0677 39.6907C49.9101 43.2986 45.2365 44.4744 41.6286 42.3168Z" stroke="#47EA7A" stroke-width="5.70866" stroke-linecap="round" stroke-linejoin="round"/>
</svg>
