<svg width="152" height="218" viewBox="0 0 152 218" fill="none" xmlns="http://www.w3.org/2000/svg">
<path d="M132 189L143.102 189L138.95 178.5L143.102 168H127.5L132 173V189Z" fill="#0460B5"/>
<path d="M19.1015 189L7.99995 189L12.1518 178.5L7.99995 168H23.6016L19.1015 173V189Z" fill="#0460B5"/>
<path d="M130 174H21V195H130V174Z" fill="#0460B5"/>
<path d="M35.6364 181.545C36.1818 181.818 36.6364 182.273 36.9091 182.727C37.1818 183.273 37.3636 183.909 37.3636 184.455C37.3636 185.091 37.1818 185.636 36.9091 186.182C36.6364 186.727 36.1818 187.091 35.6364 187.364C35.0909 187.636 34.4545 187.818 33.8182 187.818H31V181H33.8182C34.4545 181.091 35.0909 181.182 35.6364 181.545ZM35 186.455C35.3636 186.273 35.6364 186 35.8182 185.636C36.1818 184.909 36.1818 184 35.8182 183.273C35.6364 182.909 35.3636 182.636 35 182.455C34.6364 182.273 34.2727 182.182 33.8182 182.182H32.2727V186.727H33.8182C34.1818 186.727 34.6364 186.636 35 186.455Z" fill="white"/>
<path d="M38.4548 181.091H43.4548V182.182H39.8185V183.909H43.0912V185H39.8185V186.727H43.6367V187.818H38.4548V181.091Z" fill="white"/>
<path d="M48.1819 182.364C47.9092 182.273 47.5455 182.182 47.1819 182.182C46.9092 182.182 46.6364 182.273 46.4546 182.364C46.2728 182.454 46.1819 182.636 46.1819 182.818C46.1819 183 46.2728 183.182 46.3637 183.273C46.4546 183.364 46.6364 183.545 46.8183 183.545C47.091 183.636 47.3637 183.727 47.6364 183.818C48.0001 183.909 48.3637 184.091 48.7273 184.182C49.0001 184.364 49.2728 184.545 49.4546 184.818C49.6364 185.091 49.8183 185.454 49.7273 185.909C49.7273 186.273 49.6364 186.727 49.3637 187C49.091 187.273 48.8183 187.545 48.4546 187.727C48.0001 187.909 47.5455 188 47.091 188C46.5455 188 46.0001 187.909 45.5455 187.727C45.091 187.545 44.6364 187.273 44.1819 186.909L44.7273 185.818C45.091 186.091 45.4546 186.364 45.9092 186.545C46.2728 186.727 46.7273 186.818 47.091 186.818C47.3637 186.818 47.7273 186.727 47.9092 186.636C48.2728 186.454 48.2728 186 48.091 185.636L48.0001 185.545C47.8183 185.454 47.7273 185.273 47.5455 185.273C47.3637 185.182 47.091 185.091 46.7273 185C46.3637 184.909 46.0001 184.727 45.6364 184.636C45.3637 184.545 45.091 184.273 44.9092 184.091C44.7273 183.818 44.5455 183.454 44.6364 183.091C44.6364 182.727 44.7273 182.364 44.9092 182.091C45.1819 181.818 45.4546 181.545 45.8182 181.364C46.2728 181.182 46.7273 181.091 47.1819 181.091C47.6364 181.091 48.091 181.182 48.4546 181.273C48.8183 181.364 49.2728 181.545 49.6364 181.818L49.091 182.909C48.9092 182.636 48.5455 182.454 48.1819 182.364Z" fill="white"/>
<path d="M51.0911 181.091H52.3638V187.909H51.0911V181.091Z" fill="white"/>
<path d="M58.6367 184.455H59.7276V187.091C59.3639 187.364 58.9094 187.545 58.4548 187.727C58.0003 187.909 57.5457 188 57.0003 188C56.3639 188 55.7276 187.818 55.1821 187.545C54.6367 187.273 54.1821 186.818 53.9094 186.273C53.5457 185.727 53.4548 185.091 53.4548 184.455C53.4548 183.818 53.6367 183.182 53.9094 182.727C54.273 182.182 54.7276 181.727 55.273 181.455C55.8185 181.182 56.4548 181 57.0912 181C57.5457 181 58.0912 181.091 58.5457 181.273C59.0003 181.455 59.4548 181.636 59.7276 182L59.0003 183C58.7276 182.727 58.4548 182.545 58.0912 182.455C57.7276 182.364 57.4548 182.273 57.0912 182.273C56.6367 182.273 56.273 182.364 55.9094 182.545C54.8185 183.182 54.4548 184.636 55.0912 185.727C55.5457 186.455 56.273 186.909 57.0912 186.909C57.3639 186.909 57.5457 186.909 57.8185 186.818C58.0912 186.727 58.3639 186.636 58.5457 186.455L58.6367 184.455Z" fill="white"/>
<path d="M66.0913 181.091H67.364V187.909H66.1822L62.6367 183.182V187.909H61.364V181.091H62.6367L66.1822 185.818L66.0913 181.091Z" fill="white"/>
<path d="M73.273 187.909L72.0912 185.909H70.273V187.909H69.0002V181.091H71.8184C72.5457 181 73.273 181.273 73.9093 181.636C74.3639 182.091 74.6366 182.727 74.6366 183.364C74.6366 183.818 74.5457 184.273 74.273 184.727C74.0002 185.091 73.6366 185.364 73.273 185.545L74.8184 187.818L73.273 187.909ZM70.273 184.727H71.8184C72.273 184.727 72.6366 184.636 73.0002 184.364C73.273 184.091 73.3639 183.818 73.3639 183.455C73.3639 183.091 73.273 182.727 73.0002 182.545C72.6366 182.364 72.273 182.182 71.9093 182.273H70.273V184.727Z" fill="white"/>
<path d="M77.6365 186.364C78.0002 186.636 78.4547 186.818 78.8184 186.818C79.2729 186.818 79.7275 186.636 80.0002 186.364C80.2729 186 80.4547 185.545 80.4547 185.091V181.091H81.7275V185.091C81.7275 185.636 81.6365 186.182 81.3638 186.636C81.0911 187.091 80.7275 187.454 80.3638 187.636C79.9093 187.909 79.3638 188 78.8184 188C78.2729 188 77.7275 187.909 77.182 187.636C76.7275 187.454 76.3638 187.091 76.182 186.636C75.9093 186.182 75.8184 185.636 75.8184 185.091V181.091H77.0911V185.091C77.182 185.545 77.3638 186 77.6365 186.364Z" fill="white"/>
<path d="M86.6366 182.364C86.3639 182.273 86.0002 182.182 85.6366 182.182C85.3639 182.182 85.0911 182.273 84.9093 182.364C84.7275 182.454 84.6366 182.636 84.6366 182.818C84.6366 183 84.7275 183.182 84.8184 183.273C84.9093 183.364 85.0911 183.545 85.273 183.545C85.5457 183.636 85.8184 183.727 86.0911 183.818C86.4548 183.909 86.8184 184.091 87.1821 184.182C87.4548 184.364 87.7275 184.545 87.9093 184.818C88.0911 185.091 88.273 185.454 88.1821 185.909C88.1821 186.273 88.0911 186.727 87.8184 187C87.5457 187.273 87.273 187.545 86.9093 187.727C86.4548 187.909 86.0002 188 85.5457 188C85.0002 188 84.4548 187.909 84.0002 187.727C83.5457 187.545 83.0911 187.273 82.6366 186.909L83.1821 185.818C83.5457 186.091 83.9093 186.364 84.3639 186.545C84.7275 186.727 85.1821 186.818 85.5457 186.818C85.8184 186.818 86.1821 186.727 86.3639 186.636C86.7275 186.454 86.7275 186 86.5457 185.636L86.4548 185.545C86.273 185.454 86.1821 185.273 86.0002 185.273C85.8184 185.182 85.5457 185.091 85.1821 185C84.8184 184.909 84.4548 184.727 84.0911 184.636C83.8184 184.545 83.5457 184.273 83.3639 184.091C83.1821 183.818 83.0002 183.454 83.0911 183.091C83.0911 182.727 83.1821 182.364 83.3639 182.091C83.6366 181.818 83.9093 181.545 84.273 181.364C84.7275 181.182 85.1821 181.091 85.6366 181.091C86.0911 181.091 86.5457 181.182 86.9093 181.273C87.273 181.364 87.7275 181.545 88.0911 181.818L87.5457 182.909C87.3639 182.636 87.0002 182.454 86.6366 182.364Z" fill="white"/>
<path d="M89.5458 181.091H90.8185V184H94.1821V181.091H95.4549V187.909H94.1821V185.182H90.8185V187.909H89.5458V181.091Z" fill="white"/>
<path d="M97.9095 186.728C98.0004 186.819 98.0913 187 98.0913 187.273C98.0913 187.455 98.0004 187.637 97.9095 187.819C97.8186 187.91 97.6368 188 97.455 188C97.2732 188 97.0913 187.91 97.0004 187.819C96.9095 187.637 96.8186 187.455 96.8186 187.273C96.8186 187.091 96.9095 186.91 97.0004 186.728C97.0913 186.637 97.2732 186.546 97.455 186.546C97.6368 186.546 97.8186 186.637 97.9095 186.728Z" fill="white"/>
<path d="M101.545 183.728C101.182 183.728 100.818 183.909 100.545 184.182C100.273 184.455 100.182 184.909 100.182 185.273C100.182 185.728 100.273 186.091 100.545 186.364C100.818 186.637 101.182 186.819 101.545 186.819C102.091 186.819 102.636 186.637 102.909 186.182L103.727 186.819C103.454 187.182 103.182 187.455 102.818 187.637C102.364 187.819 101.909 187.909 101.454 187.909C101 187.909 100.545 187.819 100.091 187.546C99.7272 187.364 99.3635 187 99.1817 186.637C98.7272 185.819 98.7272 184.728 99.1817 183.909C99.3635 183.546 99.7272 183.182 100.091 183C100.545 182.819 101 182.637 101.454 182.637C101.909 182.637 102.364 182.728 102.727 182.909C103.091 183.091 103.364 183.273 103.636 183.637L102.909 184.364C102.636 184 102.091 183.728 101.545 183.728Z" fill="white"/>
<path d="M108.364 183C108.728 183.182 109.091 183.546 109.364 183.909C109.637 184.364 109.728 184.819 109.728 185.273C109.728 185.728 109.637 186.273 109.364 186.637C109.091 187 108.819 187.364 108.364 187.546C107.909 187.728 107.455 187.909 106.909 187.909C106.364 187.909 105.909 187.819 105.455 187.546C105.091 187.364 104.728 187 104.455 186.637C104.182 186.182 104.091 185.728 104.091 185.273C104.091 184.819 104.182 184.273 104.455 183.909C104.728 183.546 105 183.182 105.455 183C105.909 182.728 106.364 182.637 106.909 182.637C107.455 182.637 107.909 182.728 108.364 183ZM105.909 184.182C105.364 184.819 105.364 185.819 105.909 186.455C106.182 186.728 106.546 186.909 107 186.909C107.364 186.909 107.819 186.728 108.091 186.455C108.637 185.819 108.637 184.819 108.091 184.182C107.819 183.909 107.455 183.728 107 183.728C106.546 183.728 106.182 183.819 105.909 184.182Z" fill="white"/>
<path d="M119 183.181C119.364 183.545 119.546 184.09 119.546 184.636V187.909H118.273V184.999C118.273 184.636 118.182 184.363 118 184.09C117.819 183.909 117.455 183.727 117.182 183.727C116.819 183.727 116.455 183.909 116.182 184.181C115.909 184.454 115.819 184.818 115.819 185.272V187.818H114.546V184.999C114.546 184.636 114.455 184.363 114.273 184.09C114.091 183.909 113.728 183.727 113.455 183.727C113.091 183.727 112.728 183.909 112.455 184.181C112.182 184.454 112.091 184.909 112.182 185.272V187.818H110.909V182.636H112.182V183.636C112.819 182.636 114.182 182.363 115.182 182.909C115.455 183.09 115.728 183.454 115.819 183.818C116.091 182.999 116.909 182.545 117.728 182.545C118.182 182.545 118.637 182.818 119 183.181Z" fill="white"/>
<path d="M66.1458 130V120.976H69.3778V119.328H61.0418V120.976H64.2738V130H66.1458ZM75.5499 130.192C78.7339 130.192 81.0059 127.856 81.0059 124.672C81.0059 121.488 78.7339 119.152 75.5499 119.152C72.3499 119.152 70.0939 121.488 70.0939 124.672C70.0939 127.856 72.3499 130.192 75.5499 130.192ZM75.5499 128.528C73.3899 128.528 72.0139 126.864 72.0139 124.672C72.0139 122.464 73.3899 120.816 75.5499 120.816C77.6939 120.816 79.0859 122.464 79.0859 124.672C79.0859 126.864 77.6939 128.528 75.5499 128.528ZM84.6643 130V126H87.4963C89.7203 126 90.9683 124.48 90.9683 122.672C90.9683 120.848 89.7362 119.328 87.4963 119.328H82.7923V130H84.6643ZM87.2403 124.352H84.6643V120.976H87.2403C88.2963 120.976 89.0483 121.648 89.0483 122.672C89.0483 123.68 88.2963 124.352 87.2403 124.352ZM11.4288 148L14.4848 137.328H12.3888L10.3088 145.536L8.10081 137.328H6.61281L4.40481 145.536L2.32481 137.328H0.244813L3.28481 148H5.28481L7.36481 140.112L9.42881 148H11.4288ZM23.0339 148V146.352H17.5939V143.376H22.9219V141.728H17.5939V138.976H23.0339V137.328H15.7219V148H23.0339ZM30.3483 148C32.3643 148 33.4523 146.768 33.4523 145.104C33.4523 143.808 32.5403 142.672 31.3883 142.496C32.3803 142.288 33.2443 141.376 33.2443 140.048C33.2443 138.544 32.1723 137.328 30.2043 137.328H24.9563V148H30.3483ZM29.8363 141.728H26.8283V138.976H29.8363C30.7803 138.976 31.3243 139.568 31.3243 140.352C31.3243 141.168 30.7803 141.728 29.8363 141.728ZM29.9163 146.352H26.8283V143.376H29.9163C30.9723 143.376 31.5323 144.064 31.5323 144.864C31.5323 145.792 30.9243 146.352 29.9163 146.352ZM43.4559 148C46.7839 148 49.0239 145.808 49.0239 142.656C49.0239 139.536 46.7839 137.328 43.4399 137.328H39.4719V148H43.4559ZM43.4399 146.352H41.3439V138.976H43.4559C45.8239 138.976 47.1039 140.608 47.1039 142.656C47.1039 144.688 45.7599 146.352 43.4399 146.352ZM58.1433 148V146.352H52.7033V143.376H58.0313V141.728H52.7033V138.976H58.1433V137.328H50.8313V148H58.1433ZM65.4897 148L69.6817 137.328H67.5537L64.3217 145.952L61.0897 137.328H58.9617L63.1537 148H65.4897ZM78.1433 148V146.352H72.7033V143.376H78.0313V141.728H72.7033V138.976H78.1433V137.328H70.8313V148H78.1433ZM86.5137 148V146.352H81.8097V137.328H79.9377V148H86.5137ZM92.6671 148.192C95.8511 148.192 98.1231 145.856 98.1231 142.672C98.1231 139.488 95.8511 137.152 92.6671 137.152C89.4671 137.152 87.2111 139.488 87.2111 142.672C87.2111 145.856 89.4671 148.192 92.6671 148.192ZM92.6671 146.528C90.5071 146.528 89.1311 144.864 89.1311 142.672C89.1311 140.464 90.5071 138.816 92.6671 138.816C94.8111 138.816 96.2031 140.464 96.2031 142.672C96.2031 144.864 94.8111 146.528 92.6671 146.528ZM101.781 148V144H104.613C106.837 144 108.085 142.48 108.085 140.672C108.085 138.848 106.853 137.328 104.613 137.328H99.9094V148H101.781ZM104.357 142.352H101.781V138.976H104.357C105.413 138.976 106.165 139.648 106.165 140.672C106.165 141.68 105.413 142.352 104.357 142.352ZM120.747 148V137.328H118.107L115.211 144.656L112.299 137.328H109.659V148H111.531V139.76L114.811 148H115.611L118.875 139.76V148H120.747ZM130.331 148V146.352H124.891V143.376H130.219V141.728H124.891V138.976H130.331V137.328H123.019V148H130.331ZM141.501 148V137.328H139.629V144.72L134.173 137.328H132.253V148H134.125V140.368L139.693 148H141.501ZM148.185 148V138.976H151.417V137.328H143.081V138.976H146.313V148H148.185ZM37.1704 166.192C39.3144 166.192 40.6424 165.056 41.4584 163.776L39.8584 162.976C39.3464 163.856 38.3064 164.528 37.1704 164.528C35.0584 164.528 33.4904 162.896 33.4904 160.672C33.4904 158.416 35.0584 156.816 37.1704 156.816C38.3064 156.816 39.3464 157.472 39.8584 158.368L41.4424 157.536C40.6584 156.256 39.3144 155.152 37.1704 155.152C34.0184 155.152 31.5704 157.376 31.5704 160.672C31.5704 163.952 34.0184 166.192 37.1704 166.192ZM47.9327 166.192C51.1167 166.192 53.3887 163.856 53.3887 160.672C53.3887 157.488 51.1167 155.152 47.9327 155.152C44.7327 155.152 42.4767 157.488 42.4767 160.672C42.4767 163.856 44.7327 166.192 47.9327 166.192ZM47.9327 164.528C45.7727 164.528 44.3967 162.864 44.3967 160.672C44.3967 158.464 45.7727 156.816 47.9327 156.816C50.0767 156.816 51.4687 158.464 51.4687 160.672C51.4687 162.864 50.0767 164.528 47.9327 164.528ZM66.2631 166V155.328H63.6231L60.7271 162.656L57.8151 155.328H55.1751V166H57.0471V157.76L60.3271 166H61.1271L64.3911 157.76V166H66.2631ZM70.4064 166V162H73.2384C75.4624 162 76.7104 160.48 76.7104 158.672C76.7104 156.848 75.4784 155.328 73.2384 155.328H68.5344V166H70.4064ZM72.9824 160.352H70.4064V156.976H72.9824C74.0384 156.976 74.7904 157.648 74.7904 158.672C74.7904 159.68 74.0384 160.352 72.9824 160.352ZM86.6973 166L82.5053 155.328H80.1693L75.9773 166H78.1053L78.8893 163.936H83.7853L84.5693 166H86.6973ZM83.2573 162.288H79.4173L81.3373 157.2L83.2573 162.288ZM97.0949 166V155.328H95.2229V162.72L89.7669 155.328H87.8469V166H89.7189V158.368L95.2869 166H97.0949ZM101.235 166V155.328H99.3626V166H101.235ZM110.815 166V164.352H105.375V161.376H110.703V159.728H105.375V156.976H110.815V155.328H103.503V166H110.815ZM116.402 166.192C119.266 166.192 120.53 164.656 120.53 162.88C120.53 158.912 114.322 160.144 114.322 158.144C114.322 157.36 115.026 156.816 116.114 156.816C117.234 156.816 118.37 157.2 119.218 158.048L120.274 156.656C119.298 155.696 117.938 155.152 116.29 155.152C113.938 155.152 112.402 156.512 112.402 158.288C112.402 162.208 118.61 160.816 118.61 163.056C118.61 163.776 118.018 164.528 116.482 164.528C114.994 164.528 113.826 163.824 113.106 163.04L112.05 164.496C113.01 165.488 114.434 166.192 116.402 166.192Z" fill="black"/>
<path d="M75.765 68.6661C75.5774 68.6661 75.5774 68.4654 75.765 68.6661L74.827 68.0638L74.6394 67.863L52.5036 50.9977C52.5036 50.9977 52.3161 50.9977 52.3161 50.797L51.9409 50.3954L51.7533 50.1946H51.3781L45 45.376L57.5686 47.3837C58.1314 47.3837 58.319 47.5845 58.8817 47.7853C59.0693 47.7853 59.4445 47.9861 59.4445 47.9861C60.0073 48.1869 60.1949 48.3876 60.5701 48.5884C60.9453 48.7892 61.1328 48.99 61.508 49.1907C61.6956 49.3915 62.0708 49.5923 62.0708 49.7931C62.2584 49.9939 62.446 49.9939 62.6336 50.1946C63.0088 50.3954 63.1963 50.5962 63.1963 50.797C63.7591 51.3993 64.1343 52.0016 64.6971 52.4032L74.6394 67.4615L74.827 67.6623L75.765 68.6661Z" fill="#18AAD1"/>
<path d="M75.7649 91.9564L74.8269 90.3502L74.6393 90.1494L45.1875 45.376L51.5656 50.1946L52.6912 50.9978L74.8269 67.8631H75.0145L75.7649 68.4654C75.7649 68.4654 75.9525 68.4654 75.9525 68.6662L76.8904 67.8631L106.717 45.376L76.7028 90.3502L76.5153 90.551L75.7649 91.9564Z" fill="#2AD2FF"/>
<path d="M75.7649 61.0363L74.8269 59.4301L74.6393 59.2293L67.3232 48.3873L74.6393 49.9935H74.8269L75.7649 50.1943L76.7028 49.9935L83.8313 48.1865L76.7028 59.4301V59.6309L75.7649 61.0363Z" fill="#18AAD1"/>
<path d="M106.905 45.1748L97.5255 46.5802L93.9612 47.1826C91.1474 47.5841 88.5211 49.1904 86.8328 51.8005L76.8904 67.0595L76.7028 67.2603L75.7649 68.6658L76.8904 67.4611L77.078 67.2603L75.7649 68.6658L101.09 49.3911L106.905 45.1748Z" fill="#18AAD1"/>
<path d="M80.4547 13.4521C80.4547 22.2862 66.1978 26.9041 66.1978 36.3406C66.0102 38.5492 66.573 40.7577 67.5109 42.7655C67.5109 42.7655 62.0708 37.1437 62.0708 31.1204C62.0708 25.0971 67.3233 16.0622 67.3233 16.0622C67.3233 20.0777 68.8241 21.2824 70.3248 21.4831H70.5124C72.2007 21.4831 73.1387 20.0777 73.1387 18.0699C73.1387 16.0622 71.0752 14.0544 71.0752 10.0389C71.0752 6.22409 75.5774 0 75.5774 0C78.7664 4.01554 80.4547 8.63341 80.4547 13.4521Z" fill="#2AD2FF"/>
<path d="M76.5153 45.5763C72.0131 45.5763 68.6365 41.7615 68.6365 37.1436V36.9429C68.6365 26.7032 81.9554 25.6993 81.9554 11.8457C82.3306 12.448 85.8948 17.6682 85.8948 23.29C85.8948 30.3172 79.7043 32.1242 79.7043 35.5374C79.7043 36.9429 80.2671 37.9468 82.143 37.9468C82.3306 37.9468 82.5182 37.9468 82.7058 37.746C86.27 36.1398 88.7087 32.5258 88.8963 28.3094C88.8963 28.5102 90.7722 45.5763 76.5153 45.5763Z" fill="#2AD2FF"/>
<path d="M82.3307 37.9468C82.5183 37.9468 82.7058 37.9468 82.8934 37.746C81.0175 38.3483 74.0767 40.1553 74.0767 34.9351C74.0767 28.5102 84.3942 27.1048 84.3942 21.6838C84.3942 18.2706 83.6438 14.8574 81.9555 11.8457C82.3307 12.448 85.8949 17.6682 85.8949 23.29C85.8949 30.3172 79.7044 32.1242 79.7044 35.5374C79.892 36.9429 80.6423 37.9468 82.3307 37.9468Z" fill="#18AAD1"/>
<path d="M76.3781 17.0661C76.3781 22.0855 70.3752 21.684 70 21.4832H70.5628C72.2511 21.4832 73.189 20.0778 73.189 18.07C73.189 16.0622 71.1255 14.0544 71.1255 10.0389C71.1255 6.2241 75.6277 0 75.6277 0C74.127 2.61011 73.3766 5.42099 73.189 8.23188C73.189 12.8498 76.3781 13.2513 76.3781 17.0661Z" fill="#18AAD1"/>
<path d="M73.162 105.02L68.824 101.932H74.1479L75.9226 96.373L77.5 101.932H82.824L78.4859 105.02L80.0634 110.373L75.7254 107.079L71.1902 110.373L73.162 105.02Z" fill="#2AD2FF"/>
<path d="M96.338 105.02L92 101.932H97.3239L99.0986 96.373L100.676 101.932H106L101.662 105.02L103.239 110.373L98.9014 107.079L94.3662 110.373L96.338 105.02Z" fill="#2AD2FF"/>
<path d="M119.338 105.02L115 101.932H120.324L122.099 96.373L123.676 101.932H129L124.662 105.02L126.239 110.373L121.901 107.079L117.366 110.373L119.338 105.02Z" fill="#2AD2FF"/>
<path d="M49.338 105.02L45 101.932H50.3239L52.0986 96.373L53.6761 101.932H59L54.662 105.02L56.2394 110.373L51.9014 107.079L47.5634 110.373L49.338 105.02Z" fill="#2AD2FF"/>
<path d="M26.338 105.02L22 101.932H27.3239L29.0986 96.373L30.6761 101.932H36L31.662 105.02L33.2394 110.373L28.9014 107.079L24.5634 110.373L26.338 105.02Z" fill="#2AD2FF"/>
</svg>
